HIERARCHY
ROOT root
{
	OFFSET 0.00 0.00 0.00
	CHANNELS 6 Xposition Yposition Zposition Zrotation Xrotation Yrotation
	JOINT lowerback
	{
		OFFSET 0 0 0
		CHANNELS 6 Xposition Yposition Zposition Zrotation Xrotation Yrotation
		JOINT upperback
		{
			OFFSET -0.214371 12.3768 -1.12219
			CHANNELS 6 Xposition Yposition Zposition Zrotation Xrotation Yrotation
			JOINT thorax
			{
				OFFSET -0.00137213 12.3873 0.296195
				CHANNELS 6 Xposition Yposition Zposition Zrotation Xrotation Yrotation
				JOINT lowerneck
				{
					OFFSET 0.0883157 12.5016 0.82912
					CHANNELS 6 Xposition Yposition Zposition Zrotation Xrotation Yrotation
					JOINT upperneck
					{
						OFFSET -1 10.1794 0.943522
						CHANNELS 6 Xposition Yposition Zposition Zrotation Xrotation Yrotation
						JOINT head
						{
							OFFSET 0.667525 10.2797 -1.57149
							CHANNELS 6 Xposition Yposition Zposition Zrotation Xrotation Yrotation
							End Site
							{
								OFFSET 0 0 0
							}
						}
					}
				}
				JOINT lclavicle
				{
					OFFSET 0.0883157 12.5016 0.82912
					CHANNELS 6 Xposition Yposition Zposition Zrotation Xrotation Yrotation
					JOINT lhumerus
					{
						OFFSET 20.61 4.45006 1.43784
						CHANNELS 6 Xposition Yposition Zposition Zrotation Xrotation Yrotation
						JOINT lradius
						{
							OFFSET 0 -30.3438 0
							CHANNELS 6 Xposition Yposition Zposition Zrotation Xrotation Yrotation
							JOINT lwrist
							{
								OFFSET 0 -18.964 0
								CHANNELS 6 Xposition Yposition Zposition Zrotation Xrotation Yrotation
								JOINT lhand
								{
									OFFSET 0 -9.48199 0
									CHANNELS 6 Xposition Yposition Zposition Zrotation Xrotation Yrotation
									JOINT lfingers
									{
										OFFSET 0 -3.17138 0
										CHANNELS 6 Xposition Yposition Zposition Zrotation Xrotation Yrotation
										End Site
										{
											OFFSET 0 -2.55685 0
										}
									}
								}
								JOINT lthumb
								{
									OFFSET 0 -9.48199 0
									CHANNELS 6 Xposition Yposition Zposition Zrotation Xrotation Yrotation
									End Site
									{
										OFFSET 0 -3.67114 0
									}
								}
							}
						}
					}
				}
				JOINT rclavicle
				{
					OFFSET 0.0883157 12.5016 0.82912
					CHANNELS 6 Xposition Yposition Zposition Zrotation Xrotation Yrotation
					JOINT rhumerus
					{
						OFFSET -20.61 4.45 1.44
						CHANNELS 6 Xposition Yposition Zposition Zrotation Xrotation Yrotation
						JOINT rradius
						{
							OFFSET 0 -29.5102 0
							CHANNELS 6 Xposition Yposition Zposition Zrotation Xrotation Yrotation
							JOINT rwrist
							{
								OFFSET 0 -19.2342 0
								CHANNELS 6 Xposition Yposition Zposition Zrotation Xrotation Yrotation
								JOINT rhand
								{
									OFFSET 0 -9.61712 0
									CHANNELS 6 Xposition Yposition Zposition Zrotation Xrotation Yrotation
									JOINT rfingers
									{
										OFFSET 0 -3.29215 0
										CHANNELS 6 Xposition Yposition Zposition Zrotation Xrotation Yrotation
										End Site
										{
											OFFSET 0 -2.557 0
										}
									}
								}
								JOINT rthumb
								{
									OFFSET 0 -9.61712 0
									CHANNELS 6 Xposition Yposition Zposition Zrotation Xrotation Yrotation
									End Site
									{
										OFFSET 0 -3.671 0
									}
								}
							}
						}
					}
				}
			}
		}
	}
	JOINT rfemur
	{
		OFFSET -8.46272 -9.62775 4.76248
		CHANNELS 6 Xposition Yposition Zposition Zrotation Xrotation Yrotation
		JOINT rtibia
		{
			OFFSET 1.00552e-005 -38.0331 0
			CHANNELS 6 Xposition Yposition Zposition Zrotation Xrotation Yrotation
			JOINT rfoot
			{
				OFFSET 1.14428e-005 -43.2815 0
				CHANNELS 6 Xposition Yposition Zposition Zrotation Xrotation Yrotation
				JOINT rtoes
				{
					OFFSET 0 -14.1868 -3.08763
					CHANNELS 6 Xposition Yposition Zposition Zrotation Xrotation Yrotation
					End Site
					{
						OFFSET 0 -7.27332 0
					}
				}
			}
		}
	}
	JOINT lfemur
	{
		OFFSET 9.10607 -9.62778 4.76249
		CHANNELS 6 Xposition Yposition Zposition Zrotation Xrotation Yrotation
		JOINT ltibia
		{
			OFFSET -1.01399e-005 -38.3535 0
			CHANNELS 6 Xposition Yposition Zposition Zrotation Xrotation Yrotation
			JOINT lfoot
			{
				OFFSET -1.12937e-005 -42.7176 0
				CHANNELS 6 Xposition Yposition Zposition Zrotation Xrotation Yrotation
				JOINT ltoes
				{
					OFFSET 0 -13.9965 -2.83857
					CHANNELS 6 Xposition Yposition Zposition Zrotation Xrotation Yrotation
					End Site
					{
						OFFSET 0 -7.16348 0
					}
				}
			}
		}
	}
}
MOTION
Frames: 7
Frame Time: 0.00833333
1.85106	99.2488	29.2357	-0.600644	18.4402	0.00280705	0 0 0 1.61989	24.077	-1.52536	-0.214371 12.3768 -1.12219 -0.247548	4.69373	-2.25712	-0.00137213 12.3873 0.296195 -0.517421	-8.25844	-1.37844	0.0883157 12.5016 0.82912 0.437413	17.5816	0.377295	-1 10.1794 0.943522 4.25251	-21.6437	1.32644	0.667525 10.2797 -1.57149 1.07345	-9.79074	-0.0888465	0.0883157 12.5016 0.82912 -15	0	-0	20.61 4.45006 1.43784 20.8663	21.7921	169.028	0 -30.3438 0 -0	70.4301	-0	0 -18.964 0 -0	0	-88.9237	0 -9.48199 0 1.22245	4.37968	-2.58917e-014	0 -3.17138 0 -0	7.12502	-0	0 -9.48199 0 25	15	-1.36605e-015	0.0883157 12.5016 0.82912 15	0	-0	-20.61 4.45 1.44 -16.2126	11.3371	-174.115	0 -29.5102 0 -0	61.8779	-0	0 -19.2342 0 6.92787e-016	-3.0401e-015	115.675	0 -9.61712 0 1.22	4.38	-0	0 -3.29215 0 -0	7.12502	-0	0 -9.61712 0 25	15	-7.97034e-015	-8.46272 -9.62775 4.76248 8.25739	-37.5444	10.7684	1.00552e-005 -38.0331 0 -0	18.0547	-0	1.14428e-005 -43.2815 0 -37.0615	-67.3306	-39.2989	0 -14.1868 -3.08763 -0	-20.8659	-0	9.10607 -9.62778 4.76249 9.80439	-37.5117	20.4304	-1.01399e-005 -38.3535 0 -0	71.6035	-0	-1.12937e-005 -42.7176 0 5.56172	-42.9428	8.13448	0 -13.9965 -2.83857 -0	-33.8206	-0
1.75851	99.1777	29.7931	-0.491408	18.8274	-0.0410676	0 0 0 1.45593	24.2591	-1.40642	-0.214371 12.3768 -1.12219 -0.256179	4.49329	-2.12205	-0.00137213 12.3873 0.296195 -0.468122	-8.57455	-1.30229	0.0883157 12.5016 0.82912 0.499322	16.9234	0.286113	-1 10.1794 0.943522 4.11241	-21.6246	1.15064	0.667525 10.2797 -1.57149 1.05084	-9.65287	-0.161343	0.0883157 12.5016 0.82912 -15	0	-0	20.61 4.45006 1.43784 20.4667	22.6701	169.694	0 -30.3438 0 -0	71.9843	-0	0 -18.964 0 -0	0	-89.3805	0 -9.48199 0 1.22245	4.37968	-2.58917e-014	0 -3.17138 0 -0	7.12502	-0	0 -9.48199 0 25	15	-1.36605e-015	0.0883157 12.5016 0.82912 15	0	-0	-20.61 4.45 1.44 -16.0841	12.1829	-174.507	0 -29.5102 0 -0	63.0013	-0	0 -19.2342 0 6.71978e-016	-2.99643e-015	115.28	0 -9.61712 0 1.22	4.38	-0	0 -3.29215 0 -0	7.12502	-0	0 -9.61712 0 25	15	-7.97034e-015	-8.46272 -9.62775 4.76248 8.1991	-38.0591	10.228	1.00552e-005 -38.0331 0 -0	18.7457	-0	1.14428e-005 -43.2815 0 -36.098	-67.2065	-38.3409	0 -14.1868 -3.08763 -0	-20.101	-0	9.10607 -9.62778 4.76249 10.5385	-40.6338	20.5404	-1.01399e-005 -38.3535 0 -0	75.5162	-0	-1.12937e-005 -42.7176 0 5.38514	-42.5651	7.93364	0 -13.9965 -2.83857 -0	-32.1523	-0
1.68267	99.1387	30.3421	-0.349744	19.1912	-0.147723	0 0 0 1.26987	24.4545	-1.27533	-0.214371 12.3768 -1.12219 -0.281077	4.28185	-1.97893	-0.00137213 12.3873 0.296195 -0.429635	-8.91365	-1.22157	0.0883157 12.5016 0.82912 0.541158	16.1877	0.202129	-1 10.1794 0.943522 3.98875	-21.5706	0.979745	0.667525 10.2797 -1.57149 1.03462	-9.48804	-0.231731	0.0883157 12.5016 0.82912 -15	0	-0	20.61 4.45006 1.43784 20.0573	23.5343	170.287	0 -30.3438 0 -0	73.4324	-0	0 -18.964 0 -0	0	-89.8851	0 -9.48199 0 1.22245	4.37968	-2.58917e-014	0 -3.17138 0 -0	7.12502	-0	0 -9.48199 0 25	15	-1.36605e-015	0.0883157 12.5016 0.82912 15	0	-0	-20.61 4.45 1.44 -15.9879	13.0355	-174.778	0 -29.5102 0 -0	64.0519	-0	0 -19.2342 0 6.53174e-016	-2.95629e-015	114.918	0 -9.61712 0 1.22	4.38	-0	0 -3.29215 0 -0	7.12502	-0	0 -9.61712 0 25	15	-7.97034e-015	-8.46272 -9.62775 4.76248 8.15609	-38.6645	9.75693	1.00552e-005 -38.0331 0 -0	19.6525	-0	1.14428e-005 -43.2815 0 -35.2225	-67.0991	-37.4669	0 -14.1868 -3.08763 -0	-19.3129	-0	9.10607 -9.62778 4.76249 11.179	-43.7104	20.6312	-1.01399e-005 -38.3535 0 -0	79.2598	-0	-1.12937e-005 -42.7176 0 5.20726	-42.736	7.64879	0 -13.9965 -2.83857 -0	-31.0188	-0
1.62819	99.0258	30.8811	-0.193882	19.5249	-0.315095	0 0 0 1.0741	24.6612	-1.13371	-0.214371 12.3768 -1.12219 -0.317188	4.06828	-1.82718	-0.00137213 12.3873 0.296195 -0.403981	-9.26494	-1.13679	0.0883157 12.5016 0.82912 0.563492	15.3692	0.126574	-1 10.1794 0.943522 3.88372	-21.4576	0.816384	0.667525 10.2797 -1.57149 1.02493	-9.28932	-0.298165	0.0883157 12.5016 0.82912 -15	0	-0	20.61 4.45006 1.43784 19.6501	24.3584	170.798	0 -30.3438 0 -0	74.7524	-0	0 -18.964 0 1.40332e-014	-5.08963e-017	-90.4156	0 -9.48199 0 1.22245	4.37968	-2.58917e-014	0 -3.17138 0 -0	7.12502	-0	0 -9.48199 0 25	15	-1.36605e-015	0.0883157 12.5016 0.82912 15	0	-0	-20.61 4.45 1.44 -15.9337	13.8564	-174.922	0 -29.5102 0 -0	64.9897	-0	0 -19.2342 0 6.36966e-016	-2.92114e-015	114.602	0 -9.61712 0 1.22	4.38	-0	0 -3.29215 0 -0	7.12502	-0	0 -9.61712 0 25	15	-7.97034e-015	-8.46272 -9.62775 4.76248 8.15286	-39.3287	9.38038	1.00552e-005 -38.0331 0 -0	20.7394	-0	1.14428e-005 -43.2815 0 -34.4421	-67.0146	-36.6835	0 -14.1868 -3.08763 -0	-18.5248	-0	9.10607 -9.62778 4.76249 11.7595	-46.723	20.7285	-1.01399e-005 -38.3535 0 -0	82.8216	-0	-1.12937e-005 -42.7176 0 5.02984	-43.4339	7.29519	0 -13.9965 -2.83857 -0	-30.4145	-0
1.59177	98.9062	31.4202	-0.0442613	19.8218	-0.535482	0 0 0 0.884022	24.8778	-0.984818	-0.214371 12.3768 -1.12219 -0.358763	3.86031	-1.66709	-0.00137213 12.3873 0.296195 -0.393448	-9.61883	-1.04895	0.0883157 12.5016 0.82912 0.567877	14.4583	0.0594754	-1 10.1794 0.943522 3.79885	-21.257	0.661592	0.667525 10.2797 -1.57149 1.02185	-9.04787	-0.359295	0.0883157 12.5016 0.82912 -15	0	-0	20.61 4.45006 1.43784 19.2596	25.1205	171.215	0 -30.3438 0 -0	75.9284	-0	0 -18.964 0 1.40325e-014	-1.15748e-016	-90.9452	0 -9.48199 0 1.22245	4.37968	-2.58917e-014	0 -3.17138 0 -0	7.12502	-0	0 -9.48199 0 25	15	-1.36605e-015	0.0883157 12.5016 0.82912 15	0	-0	-20.61 4.45 1.44 -15.9274	14.6156	-174.94	0 -29.5102 0 -0	65.7842	-0	0 -19.2342 0 6.23473e-016	-2.89149e-015	114.336	0 -9.61712 0 1.22	4.38	-0	0 -3.29215 0 -0	7.12502	-0	0 -9.61712 0 25	15	-7.97034e-015	-8.46272 -9.62775 4.76248 8.21394	-40.0166	9.11647	1.00552e-005 -38.0331 0 -0	21.964	-0	1.14428e-005 -43.2815 0 -33.7666	-66.9559	-36.0008	0 -14.1868 -3.08763 -0	-17.7584	-0	9.10607 -9.62778 4.76249 12.3224	-49.6556	20.8603	-1.01399e-005 -38.3535 0 -0	86.1923	-0	-1.12937e-005 -42.7176 0 4.85258	-44.6095	6.89302	0 -13.9965 -2.83857 -0	-30.2949	-0
1.56886	98.782	31.9644	0.0778453	20.0747	-0.795928	0 0 0 0.717149	25.1044	-0.833342	-0.214371 12.3768 -1.12219 -0.399801	3.6642	-1.49981	-0.00137213 12.3873 0.296195 -0.400499	-9.96741	-0.959517	0.0883157 12.5016 0.82912 0.556555	13.444	-0.000213938	-1 10.1794 0.943522 3.73512	-20.939	0.514953	0.667525 10.2797 -1.57149 1.0254	-8.75429	-0.414321	0.0883157 12.5016 0.82912 -15	0	-0	20.61 4.45006 1.43784 18.9025	25.8039	171.524	0 -30.3438 0 -0	76.951	-0	0 -18.964 0 1.40312e-014	-1.76845e-016	-91.4442	0 -9.48199 0 1.22245	4.37968	-2.58917e-014	0 -3.17138 0 -0	7.12502	-0	0 -9.48199 0 25	15	-1.36605e-015	0.0883157 12.5016 0.82912 15	0	-0	-20.61 4.45 1.44 -15.9706	15.2922	-174.84	0 -29.5102 0 -0	66.4157	-0	0 -19.2342 0 6.12517e-016	-2.86715e-015	114.118	0 -9.61712 0 1.22	4.38	-0	0 -3.29215 0 -0	7.12502	-0	0 -9.61712 0 25	15	-7.97034e-015	-8.46272 -9.62775 4.76248 8.36114	-40.6914	8.97397	1.00552e-005 -38.0331 0 -0	23.281	-0	1.14428e-005 -43.2815 0 -33.2088	-66.9241	-35.4327	0 -14.1868 -3.08763 -0	-17.0326	-0	9.10607 -9.62778 4.76249 12.9145	-52.4939	21.0549	-1.01399e-005 -38.3535 0 -0	89.3638	-0	-1.12937e-005 -42.7176 0 4.67486	-46.1912	6.46488	0 -13.9965 -2.83857 -0	-30.5874	-0
1.55193	98.6584	32.5228	0.151782	20.2766	-1.07923	0 0 0 0.59184	25.3423	-0.685065	-0.214371 12.3768 -1.12219 -0.434496	3.48431	-1.32723	-0.00137213 12.3873 0.296195 -0.427619	-10.3049	-0.870349	0.0883157 12.5016 0.82912 0.532154	12.3159	-0.0543581	-1 10.1794 0.943522 3.69284	-20.4757	0.37492	0.667525 10.2797 -1.57149 1.03546	-8.39983	-0.462968	0.0883157 12.5016 0.82912 -15	0	-0	20.61 4.45006 1.43784 18.596	26.3969	171.712	0 -30.3438 0 -0	77.8163	-0	0 -18.964 0 1.40296e-014	-2.30523e-016	-91.8827	0 -9.48199 0 1.22245	4.37968	-2.58917e-014	0 -3.17138 0 -0	7.12502	-0	0 -9.48199 0 25	15	-1.36605e-015	0.0883157 12.5016 0.82912 15	0	-0	-20.61 4.45 1.44 -16.0604	15.8751	-174.633	0 -29.5102 0 -0	66.8754	-0	0 -19.2342 0 6.03592e-016	-2.84713e-015	113.939	0 -9.61712 0 1.22	4.38	-0	0 -3.29215 0 -0	7.12502	-0	0 -9.61712 0 25	15	-7.97034e-015	-8.46272 -9.62775 4.76248 8.61077	-41.3178	8.95113	1.00552e-005 -38.0331 0 -0	24.6458	-0	1.14428e-005 -43.2815 0 -32.785	-66.9185	-34.9967	0 -14.1868 -3.08763 -0	-16.3626	-0	9.10607 -9.62778 4.76249 13.5831	-55.2253	21.3389	-1.01399e-005 -38.3535 0 -180	87.6718	180	-1.12937e-005 -42.7176 0 4.49738	-48.0916	6.03324	0 -13.9965 -2.83857 -0	-31.2038	-0
